<svg width="184" height="89" viewBox="0 0 184 89" fill="none" xmlns="http://www.w3.org/2000/svg">
<path d="M54.6816 47.8232H51.6758V53H49.9795V40.2031H54.2158C55.6572 40.2031 56.7646 40.5312 57.5381 41.1875C58.3174 41.8438 58.707 42.7988 58.707 44.0527C58.707 44.8496 58.4902 45.5439 58.0566 46.1357C57.6289 46.7275 57.0312 47.1699 56.2637 47.4629L59.2695 52.8945V53H57.459L54.6816 47.8232ZM51.6758 46.4434H54.2686C55.1064 46.4434 55.7715 46.2266 56.2637 45.793C56.7617 45.3594 57.0107 44.7793 57.0107 44.0527C57.0107 43.2617 56.7734 42.6553 56.2988 42.2334C55.8301 41.8115 55.1504 41.5977 54.2598 41.5918H51.6758V46.4434ZM64.7715 53.1758C63.4824 53.1758 62.4336 52.7539 61.625 51.9102C60.8164 51.0605 60.4121 49.9268 60.4121 48.5088V48.21C60.4121 47.2666 60.5908 46.4258 60.9482 45.6875C61.3115 44.9434 61.8154 44.3633 62.46 43.9473C63.1104 43.5254 63.8135 43.3145 64.5693 43.3145C65.8057 43.3145 66.7666 43.7217 67.4521 44.5361C68.1377 45.3506 68.4805 46.5166 68.4805 48.0342V48.7109H62.0381C62.0615 49.6484 62.334 50.4072 62.8555 50.9873C63.3828 51.5615 64.0508 51.8486 64.8594 51.8486C65.4336 51.8486 65.9199 51.7314 66.3184 51.4971C66.7168 51.2627 67.0654 50.9521 67.3643 50.5654L68.3574 51.3389C67.5605 52.5635 66.3652 53.1758 64.7715 53.1758ZM64.5693 44.6504C63.9131 44.6504 63.3623 44.8906 62.917 45.3711C62.4717 45.8457 62.1963 46.5137 62.0908 47.375H66.8545V47.252C66.8076 46.4258 66.585 45.7871 66.1865 45.3359C65.7881 44.8789 65.249 44.6504 64.5693 44.6504ZM72.5762 41.1875V43.4902H74.3516V44.7471H72.5762V50.6445C72.5762 51.0254 72.6553 51.3125 72.8135 51.5059C72.9717 51.6934 73.2412 51.7871 73.6221 51.7871C73.8096 51.7871 74.0674 51.752 74.3955 51.6816V53C73.9678 53.1172 73.5518 53.1758 73.1475 53.1758C72.4209 53.1758 71.873 52.9561 71.5039 52.5166C71.1348 52.0771 70.9502 51.4531 70.9502 50.6445V44.7471H69.2188V43.4902H70.9502V41.1875H72.5762ZM78.0254 53H76.3994V43.4902H78.0254V53ZM76.2676 40.9678C76.2676 40.7041 76.3467 40.4814 76.5049 40.2998C76.6689 40.1182 76.9092 40.0273 77.2256 40.0273C77.542 40.0273 77.7822 40.1182 77.9463 40.2998C78.1104 40.4814 78.1924 40.7041 78.1924 40.9678C78.1924 41.2314 78.1104 41.4512 77.9463 41.627C77.7822 41.8027 77.542 41.8906 77.2256 41.8906C76.9092 41.8906 76.6689 41.8027 76.5049 41.627C76.3467 41.4512 76.2676 41.2314 76.2676 40.9678ZM85.2324 44.9492C84.9863 44.9082 84.7197 44.8877 84.4326 44.8877C83.3662 44.8877 82.6426 45.3418 82.2617 46.25V53H80.6357V43.4902H82.2178L82.2441 44.5889C82.7773 43.7393 83.5332 43.3145 84.5117 43.3145C84.8281 43.3145 85.0684 43.3555 85.2324 43.4375V44.9492ZM90.5059 53.1758C89.2168 53.1758 88.168 52.7539 87.3594 51.9102C86.5508 51.0605 86.1465 49.9268 86.1465 48.5088V48.21C86.1465 47.2666 86.3252 46.4258 86.6826 45.6875C87.0459 44.9434 87.5498 44.3633 88.1943 43.9473C88.8447 43.5254 89.5479 43.3145 90.3037 43.3145C91.54 43.3145 92.501 43.7217 93.1865 44.5361C93.8721 45.3506 94.2148 46.5166 94.2148 48.0342V48.7109H87.7725C87.7959 49.6484 88.0684 50.4072 88.5898 50.9873C89.1172 51.5615 89.7852 51.8486 90.5938 51.8486C91.168 51.8486 91.6543 51.7314 92.0527 51.4971C92.4512 51.2627 92.7998 50.9521 93.0986 50.5654L94.0918 51.3389C93.2949 52.5635 92.0996 53.1758 90.5059 53.1758ZM90.3037 44.6504C89.6475 44.6504 89.0967 44.8906 88.6514 45.3711C88.2061 45.8457 87.9307 46.5137 87.8252 47.375H92.5889V47.252C92.542 46.4258 92.3193 45.7871 91.9209 45.3359C91.5225 44.8789 90.9834 44.6504 90.3037 44.6504ZM103.584 48.9658L103.83 50.6533L104.19 49.1328L106.722 40.2031H108.146L110.615 49.1328L110.967 50.6797L111.239 48.957L113.226 40.2031H114.922L111.819 53H110.281L107.645 43.6748L107.442 42.6992L107.24 43.6748L104.507 53H102.969L99.875 40.2031H101.562L103.584 48.9658ZM118.314 53H116.688V43.4902H118.314V53ZM116.557 40.9678C116.557 40.7041 116.636 40.4814 116.794 40.2998C116.958 40.1182 117.198 40.0273 117.515 40.0273C117.831 40.0273 118.071 40.1182 118.235 40.2998C118.399 40.4814 118.481 40.7041 118.481 40.9678C118.481 41.2314 118.399 41.4512 118.235 41.627C118.071 41.8027 117.831 41.8906 117.515 41.8906C117.198 41.8906 116.958 41.8027 116.794 41.627C116.636 41.4512 116.557 41.2314 116.557 40.9678ZM123.131 41.1875V43.4902H124.906V44.7471H123.131V50.6445C123.131 51.0254 123.21 51.3125 123.368 51.5059C123.526 51.6934 123.796 51.7871 124.177 51.7871C124.364 51.7871 124.622 51.752 124.95 51.6816V53C124.522 53.1172 124.106 53.1758 123.702 53.1758C122.976 53.1758 122.428 52.9561 122.059 52.5166C121.689 52.0771 121.505 51.4531 121.505 50.6445V44.7471H119.773V43.4902H121.505V41.1875H123.131ZM128.439 44.6416C129.16 43.7568 130.098 43.3145 131.252 43.3145C133.262 43.3145 134.275 44.4482 134.293 46.7158V53H132.667V46.707C132.661 46.0215 132.503 45.5146 132.192 45.1865C131.888 44.8584 131.41 44.6943 130.76 44.6943C130.232 44.6943 129.77 44.835 129.371 45.1162C128.973 45.3975 128.662 45.7666 128.439 46.2236V53H126.813V39.5H128.439V44.6416Z" fill="#0CC8F2"/>
<path d="M2.28125 85V59.4062H10.5254C12.7871 59.4062 14.8203 59.9219 16.625 60.9531C18.4297 61.9727 19.8359 63.4199 20.8438 65.2949C21.8633 67.1582 22.3789 69.25 22.3906 71.5703V72.748C22.3906 75.0918 21.8926 77.1953 20.8965 79.0586C19.9121 80.9102 18.5176 82.3633 16.7129 83.418C14.9199 84.4609 12.916 84.9883 10.7012 85H2.28125ZM8.45117 64.1699V80.2539H10.5957C12.3652 80.2539 13.7246 79.627 14.6738 78.373C15.623 77.1074 16.0977 75.2324 16.0977 72.748V71.6406C16.0977 69.168 15.623 67.3047 14.6738 66.0508C13.7246 64.7969 12.3418 64.1699 10.5254 64.1699H8.45117ZM32.1289 85H25.9766V59.4062H32.1289V85ZM46.3496 78.0391L51.4473 59.4062H58.3379L49.7246 85H42.9746L34.4316 59.4062H41.2695L46.3496 78.0391ZM66.793 85H60.6406V59.4062H66.793V85ZM71.082 85V59.4062H79.3262C81.5879 59.4062 83.6211 59.9219 85.4258 60.9531C87.2305 61.9727 88.6367 63.4199 89.6445 65.2949C90.6641 67.1582 91.1797 69.25 91.1914 71.5703V72.748C91.1914 75.0918 90.6934 77.1953 89.6973 79.0586C88.7129 80.9102 87.3184 82.3633 85.5137 83.418C83.7207 84.4609 81.7168 84.9883 79.502 85H71.082ZM77.252 64.1699V80.2539H79.3965C81.166 80.2539 82.5254 79.627 83.4746 78.373C84.4238 77.1074 84.8984 75.2324 84.8984 72.748V71.6406C84.8984 69.168 84.4238 67.3047 83.4746 66.0508C82.5254 64.7969 81.1426 64.1699 79.3262 64.1699H77.252ZM110.229 74.1543H100.525V80.2539H111.986V85H94.3555V59.4062H112.021V64.1699H100.525V69.5664H110.229V74.1543ZM135.875 85H129.74L120.67 69.0742V85H114.5V59.4062H120.67L129.723 75.332V59.4062H135.875V85ZM139.777 85V59.4062H148.021C150.283 59.4062 152.316 59.9219 154.121 60.9531C155.926 61.9727 157.332 63.4199 158.34 65.2949C159.359 67.1582 159.875 69.25 159.887 71.5703V72.748C159.887 75.0918 159.389 77.1953 158.393 79.0586C157.408 80.9102 156.014 82.3633 154.209 83.418C152.416 84.4609 150.412 84.9883 148.197 85H139.777ZM145.947 64.1699V80.2539H148.092C149.861 80.2539 151.221 79.627 152.17 78.373C153.119 77.1074 153.594 75.2324 153.594 72.748V71.6406C153.594 69.168 153.119 67.3047 152.17 66.0508C151.221 64.7969 149.838 64.1699 148.021 64.1699H145.947ZM176.252 78.1973C176.252 77.2949 175.93 76.5918 175.285 76.0879C174.652 75.584 173.533 75.0625 171.928 74.5234C170.322 73.9844 169.01 73.4629 167.99 72.959C164.674 71.3301 163.016 69.0918 163.016 66.2441C163.016 64.8262 163.426 63.5781 164.246 62.5C165.078 61.4102 166.25 60.5664 167.762 59.9688C169.273 59.3594 170.973 59.0547 172.859 59.0547C174.699 59.0547 176.346 59.3828 177.799 60.0391C179.264 60.6953 180.4 61.6328 181.209 62.8516C182.018 64.0586 182.422 65.4414 182.422 67H176.27C176.27 65.957 175.947 65.1484 175.303 64.5742C174.67 64 173.809 63.7129 172.719 63.7129C171.617 63.7129 170.744 63.959 170.1 64.4512C169.467 64.9316 169.15 65.5469 169.15 66.2969C169.15 66.9531 169.502 67.5508 170.205 68.0898C170.908 68.6172 172.145 69.168 173.914 69.7422C175.684 70.3047 177.137 70.9141 178.273 71.5703C181.039 73.1641 182.422 75.3613 182.422 78.1621C182.422 80.4004 181.578 82.1582 179.891 83.4355C178.203 84.7129 175.889 85.3516 172.947 85.3516C170.873 85.3516 168.992 84.9824 167.305 84.2441C165.629 83.4941 164.363 82.4746 163.508 81.1855C162.664 79.8848 162.242 78.3906 162.242 76.7031H168.43C168.43 78.0742 168.781 79.0879 169.484 79.7441C170.199 80.3887 171.354 80.7109 172.947 80.7109C173.967 80.7109 174.77 80.4941 175.355 80.0605C175.953 79.6152 176.252 78.9941 176.252 78.1973Z" fill="white"/>
<g clip-path="url(#clip0_203_2)">
<path d="M108.342 14.23C107.841 13.9612 107.277 13.8338 106.709 13.8613C106.141 13.8888 105.592 14.0703 105.119 14.3862L97.78 19.2783C97.5299 18.61 97.082 18.0338 96.4959 17.6267C95.9099 17.2196 95.2136 17.001 94.5 17H84C83.8687 17 83.7387 17.0259 83.6173 17.0761C83.496 17.1264 83.3858 17.2001 83.293 17.293L78.293 22.293C78.2001 22.3858 78.1264 22.496 78.0761 22.6173C78.0258 22.7386 78 22.8687 78 23C78 23.1313 78.0258 23.2613 78.0761 23.3827C78.1264 23.504 78.2001 23.6142 78.293 23.707L86.293 31.707C86.3858 31.7999 86.496 31.8736 86.6174 31.9238C86.7387 31.9741 86.8687 32 87 32C87.1313 32 87.2613 31.9741 87.3827 31.9238C87.504 31.8736 87.6142 31.7999 87.707 31.707L90.4141 29H97C97.234 29 97.4606 28.9182 97.6406 28.7686L108.871 19.41C109.266 19.0806 109.574 18.6593 109.768 18.1832C109.962 17.707 110.036 17.1904 109.984 16.6789C109.931 16.1674 109.754 15.6765 109.468 15.2494C109.182 14.8223 108.795 14.472 108.342 14.2293V14.23ZM107.59 17.873L96.6377 27H90C89.8687 27 89.7387 27.0259 89.6173 27.0761C89.496 27.1264 89.3858 27.2001 89.293 27.293L87 29.5859L80.4141 23L84.4141 19H94.5C94.8978 19 95.2794 19.158 95.5607 19.4393C95.842 19.7206 96 20.1022 96 20.5C96 20.8978 95.842 21.2793 95.5607 21.5606C95.2794 21.842 94.8978 22 94.5 22H89C88.7348 22 88.4804 22.1053 88.2929 22.2929C88.1054 22.4804 88 22.7348 88 23C88 23.2652 88.1054 23.5196 88.2929 23.7071C88.4804 23.8946 88.7348 24 89 24H94.5C95.2232 23.9992 95.9284 23.7748 96.519 23.3574C97.1096 22.9401 97.5566 22.3503 97.7988 21.6689L106.229 16.0498C106.4 15.9354 106.6 15.8698 106.806 15.8598C107.012 15.8499 107.217 15.896 107.398 15.9934C107.58 16.0907 107.732 16.2355 107.838 16.4125C107.944 16.5894 108 16.7918 108 16.998C108 17.165 107.964 17.3301 107.893 17.4813C107.822 17.6326 107.719 17.7663 107.59 17.873Z" fill="#0CC8F2"/>
<path d="M94 16C95.5823 16 97.129 15.5308 98.4446 14.6518C99.7602 13.7727 100.786 12.5233 101.391 11.0615C101.997 9.59966 102.155 7.99113 101.846 6.43928C101.538 4.88743 100.776 3.46197 99.6569 2.34315C98.538 1.22433 97.1126 0.462403 95.5607 0.153721C94.0089 -0.15496 92.4003 0.00346625 90.9385 0.608967C89.4767 1.21447 88.2273 2.23985 87.3482 3.55544C86.4692 4.87103 86 6.41775 86 8C86.0024 10.121 86.8461 12.1544 88.3458 13.6542C89.8456 15.1539 91.879 15.9976 94 16ZM94 2C95.1867 2 96.3467 2.3519 97.3334 3.01119C98.3201 3.67047 99.0892 4.60755 99.5433 5.7039C99.9974 6.80026 100.116 8.00666 99.8847 9.17055C99.6532 10.3344 99.0818 11.4035 98.2426 12.2426C97.4035 13.0818 96.3344 13.6532 95.1705 13.8847C94.0067 14.1162 92.8003 13.9974 91.7039 13.5433C90.6075 13.0892 89.6705 12.3201 89.0112 11.3334C88.3519 10.3467 88 9.18669 88 8C88.0017 6.40924 88.6344 4.88413 89.7593 3.75929C90.8841 2.63445 92.4092 2.00175 94 2Z" fill="#0CC8F2"/>
<path d="M93.6475 8.9355C93.8195 8.9807 93.9805 9.06071 94.1204 9.17056C94.2603 9.28042 94.3762 9.41779 94.4609 9.5742C94.4688 9.6006 94.4893 9.6816 94.3398 9.8594C94.0957 10.1494 93.3066 9.6064 93.2881 9.5928C93.0782 9.43066 92.8124 9.35855 92.5494 9.39233C92.2863 9.42612 92.0474 9.56303 91.8852 9.77295C91.7231 9.98287 91.651 10.2486 91.6848 10.5117C91.7186 10.7748 91.8555 11.0137 92.0654 11.1758C92.3508 11.3963 92.6653 11.5765 93 11.7111V12C93 12.2652 93.1054 12.5196 93.2929 12.7071C93.4804 12.8946 93.7348 13 94 13C94.2652 13 94.5196 12.8946 94.7071 12.7071C94.8946 12.5196 95 12.2652 95 12V11.7837C95.3376 11.6468 95.6362 11.4285 95.8691 11.1484C96.1207 10.8718 96.3003 10.5375 96.3923 10.1751C96.4843 9.81262 96.4857 9.43312 96.3965 9.07C96.2412 8.59649 95.9745 8.16718 95.6188 7.81815C95.2631 7.46912 94.8289 7.21056 94.3525 7.0642C94.1805 7.019 94.0195 6.93899 93.8796 6.82914C93.7397 6.71928 93.6238 6.58191 93.5391 6.4255C93.5313 6.3991 93.5107 6.3181 93.6602 6.1403C93.9063 5.8474 94.7041 6.402 94.708 6.404C94.9175 6.56666 95.1831 6.63942 95.4462 6.60628C95.7094 6.57314 95.9486 6.43682 96.1113 6.2273C96.274 6.01778 96.3467 5.75222 96.3136 5.48905C96.2804 5.22588 96.1441 4.98666 95.9346 4.824C95.6492 4.60279 95.3347 4.42199 95 4.2867V4C95 3.73478 94.8946 3.48043 94.7071 3.29289C94.5196 3.10536 94.2652 3 94 3C93.7348 3 93.4804 3.10536 93.2929 3.29289C93.1054 3.48043 93 3.73478 93 4V4.2116C92.6621 4.35028 92.3636 4.57009 92.1309 4.8516C91.8793 5.12825 91.6997 5.46251 91.6077 5.82495C91.5157 6.18738 91.5143 6.56688 91.6035 6.93C91.7588 7.40346 92.0256 7.83272 92.3812 8.1817C92.7369 8.53068 93.1712 8.78919 93.6475 8.9355Z" fill="#0CC8F2"/>
</g>
<defs>
<clipPath id="clip0_203_2">
<rect width="32" height="32" fill="white" transform="translate(78)"/>
</clipPath>
</defs>
</svg>
