<svg width="541" height="541" viewBox="0 0 541 541" fill="none" xmlns="http://www.w3.org/2000/svg">
<circle cx="270.5" cy="270.5" r="270.5" fill="url(#paint0_radial_727_726)"/>
<path d="M270.199 422.398C354.256 422.398 422.398 354.256 422.398 270.199C422.398 186.142 354.256 118 270.199 118C186.142 118 118 186.142 118 270.199C118 354.256 186.142 422.398 270.199 422.398Z" fill="#2B91CA" fill-opacity="0.1"/>
<path d="M270.198 411.064C348.89 411.064 412.682 347.272 412.682 268.58C412.682 189.888 348.89 126.096 270.198 126.096C191.506 126.096 127.714 189.888 127.714 268.58C127.714 347.272 191.506 411.064 270.198 411.064Z" fill="#2B91CA" fill-opacity="0.5"/>
<path d="M270.199 395.273C339.949 395.273 396.492 338.73 396.492 268.98C396.492 199.231 339.949 142.688 270.199 142.688C200.449 142.688 143.906 199.231 143.906 268.98C143.906 338.73 200.449 395.273 270.199 395.273Z" fill="#2B91CA"/>
<path d="M270.199 395.273C339.949 395.273 396.492 338.73 396.492 268.98C396.492 199.231 339.949 142.688 270.199 142.688C200.449 142.688 143.906 199.231 143.906 268.98C143.906 338.73 200.449 395.273 270.199 395.273Z" fill="#2B91CA"/>
<g filter="url(#filter0_d_727_726)">
<path d="M294.118 262.483C294.118 272.602 285.918 280.802 275.806 280.802H262.079C251.967 280.802 243.766 272.602 243.766 262.483C243.766 262.483 232.645 251.301 230.84 246.487C221.725 222.149 220.87 173.131 220.87 173.131C220.87 151.21 237.66 121.238 267.296 121.238C296.932 121.238 315.493 145.878 315.493 173.131C315.493 173.131 317.412 221.261 308.518 245.363C306.573 250.607 294.118 262.483 294.118 262.483Z" fill="#414749"/>
<path d="M269.579 349.015C249.624 349.015 237.135 345.716 237.135 345.716L237.324 349.015C245.234 352.368 256.706 354.475 269.484 354.475C280.822 354.475 291.129 352.812 298.844 350.099L299.1 345.716C299.093 345.716 289.419 349.015 269.579 349.015Z" fill="#231F20"/>
<path d="M269.579 350.442C249.624 350.442 237.135 345.723 237.135 345.723L237.324 350.442C245.234 353.788 256.706 355.895 269.484 355.895C280.822 355.895 291.129 354.232 298.844 351.519L299.1 347.136C299.093 347.136 289.419 350.442 269.579 350.442Z" fill="#231F20"/>
<path d="M274.675 350.382H263.419V356.838H274.675V350.382Z" fill="#929497"/>
<path d="M223.077 356.535C223.838 357.72 225.171 358.211 226.053 357.646C226.942 357.073 227.036 355.66 226.275 354.475L223.003 349.392C222.236 348.207 220.903 347.715 220.021 348.281C219.145 348.853 219.038 350.267 219.805 351.452L223.077 356.535Z" fill="#FCCEB6"/>
<path d="M218.412 363.106C218.439 364.634 219.234 365.852 220.19 365.839C221.146 365.826 221.906 364.58 221.879 363.052L221.779 356.501C221.752 354.973 220.957 353.748 219.994 353.761C219.032 353.781 218.284 355.027 218.305 356.548L218.412 363.106Z" fill="#FCCEB6"/>
<path d="M214.817 362.473C214.75 363.799 215.416 364.903 216.312 364.95C217.2 365.004 217.988 363.974 218.062 362.648L218.372 356.979C218.446 355.66 217.779 354.549 216.884 354.502C215.989 354.455 215.208 355.491 215.134 356.804L214.817 362.473Z" fill="#FCCEB6"/>
<path d="M211.425 360.265C211.196 361.375 211.66 362.412 212.468 362.587C213.276 362.756 214.118 361.988 214.346 360.877L215.343 356.104C215.578 354.993 215.107 353.956 214.299 353.781C213.491 353.62 212.65 354.374 212.421 355.491L211.425 360.265Z" fill="#FCCEB6"/>
<path d="M208.179 358.689C207.863 359.632 208.247 360.608 209.034 360.871C209.815 361.127 210.704 360.568 211.014 359.625L212.36 355.579C212.677 354.63 212.293 353.66 211.505 353.398C210.724 353.142 209.835 353.694 209.519 354.636L208.179 358.689Z" fill="#FCCEB6"/>
<path d="M313.622 357.451C312.861 358.629 311.528 359.127 310.646 358.555C309.764 357.982 309.663 356.569 310.431 355.377L313.709 350.301C314.47 349.116 315.81 348.624 316.692 349.19C317.567 349.762 317.668 351.176 316.907 352.361L313.622 357.451Z" fill="#FCCEB6"/>
<path d="M318.28 364.014C318.26 365.543 317.459 366.761 316.503 366.748C315.547 366.734 314.786 365.482 314.813 363.961L314.921 357.41C314.948 355.888 315.742 354.663 316.705 354.677C317.668 354.697 318.422 355.942 318.395 357.464L318.28 364.014Z" fill="#FCCEB6"/>
<path d="M321.882 363.382C321.956 364.701 321.283 365.812 320.394 365.859C319.499 365.913 318.718 364.883 318.644 363.557L318.334 357.888C318.26 356.569 318.927 355.458 319.822 355.411C320.717 355.364 321.492 356.394 321.566 357.706L321.882 363.382Z" fill="#FCCEB6"/>
<path d="M325.275 361.174C325.504 362.284 325.033 363.321 324.231 363.49C323.424 363.658 322.582 362.89 322.353 361.78L321.357 357.006C321.121 355.895 321.586 354.859 322.393 354.69C323.201 354.522 324.043 355.283 324.279 356.4L325.275 361.174Z" fill="#FCCEB6"/>
<path d="M328.52 359.598C328.836 360.541 328.446 361.517 327.665 361.779C326.884 362.042 325.995 361.483 325.686 360.534L324.339 356.481C324.029 355.538 324.406 354.562 325.194 354.306C325.982 354.051 326.864 354.603 327.18 355.545L328.52 359.598Z" fill="#FCCEB6"/>
<path d="M255.36 348.052H252.754V358.184H255.36V348.052Z" fill="#069DD9"/>
<path d="M285.299 348.052H282.693V358.184H285.299V348.052Z" fill="#069DD9"/>
<path d="M261.21 249.221C261.21 249.221 245.207 244.36 241.646 240.341C237.983 236.207 234.994 219.268 234.994 219.268H303.025C303.025 219.268 299.625 234.955 296.191 238.833C292.644 242.838 276.997 248.298 276.997 248.298L261.21 249.221Z" fill="#3C3B3C"/>
<path d="M325.538 349.971C324.986 348.685 324.226 347.54 323.027 346.093C322.569 338.822 322.078 316.753 317.15 300.4C308.054 270.172 291.136 249.22 268.347 249.22C245.551 249.22 229.084 269.404 219.537 299.491C213.7 317.904 214.124 337.92 213.666 345.184C212.461 346.631 211.701 347.776 211.148 349.062C209.782 352.246 209.661 354.299 209.661 354.299C209.964 359.329 220.836 362.244 221.786 357.41C221.786 357.41 222.964 352.899 222.964 347.614C222.964 346.82 222.944 346.005 222.883 345.177C223.146 339.98 223.112 322.933 228.013 306.392C234.382 284.875 243.888 270.724 243.45 272.804C237.122 303.086 237.593 345.709 237.593 345.709C237.593 345.709 254.263 350.725 268.34 350.725C296.279 350.725 299.087 345.709 299.087 345.709C299.087 345.709 300.723 302.554 293.236 272.804C292.718 270.744 302.305 285.784 308.674 307.301C313.575 323.849 313.541 340.889 313.811 346.086C313.339 352.34 314.901 358.312 314.901 358.312C315.85 363.146 326.73 360.231 327.026 355.202C327.033 355.215 326.905 353.155 325.538 349.971Z" fill="#FCCEB6"/>
<path d="M223.671 340.067L217.06 339.966L217.066 339.502L212.3 339.448L212.232 344.551L217.006 344.605L217.012 344.019L223.563 344.12C223.563 344.12 224.068 343.609 224.068 342.228C224.061 340.808 223.671 340.067 223.671 340.067Z" fill="#414142"/>
<path d="M212.952 340.068L212.906 343.743L216.103 343.783L216.149 340.108L212.952 340.068Z" fill="#6E6F71"/>
<path d="M319.29 299.754C313.655 281.045 302.701 255.926 290.206 247.221C287.621 245.417 284.975 248.568 282.295 247.585C277.603 251.685 273.543 253.28 269.066 253.179C265.128 253.092 260.166 252.163 255.965 247.585C253.791 248.372 251.677 244.757 249.637 245.881C235.088 253.927 223.986 278.082 217.409 298.811C215.968 303.356 211.828 326.751 211 331.659L212.285 334.715V339.448H224.484V334.715L227.002 331.659C227.48 329.551 229.54 309.112 230.16 307.032C232.927 297.694 236.253 290.032 238.885 284.707C238.824 285.205 238.777 285.71 238.723 286.208C237.734 295.398 237.027 304.79 236.535 313.34C235.485 331.504 231.23 338.876 232.328 342.882C233.243 346.207 248.081 352.953 268.346 352.953C297.989 352.953 305.556 345.763 305.852 344.625C305.852 344.625 301.469 331.477 300.48 313.34C300.008 304.743 299.288 295.29 298.177 286.067C298.191 286.087 298.197 286.107 298.211 286.134C300.769 291.567 303.927 299.114 306.532 307.927C306.99 309.475 310.484 331.167 310.908 333.173L312.692 336.223V341.979H324.225V336.223L325.275 333.173C324.481 328.292 320.455 303.612 319.29 299.754Z" fill="#414749"/>
<path d="M257.036 251.833C257.655 251.2 256.686 250.231 256.066 250.863C254.316 252.634 253.286 254.586 254.329 257.044C255.305 259.34 256.699 261.252 256.773 263.843C256.854 266.765 254.208 269.452 252.458 271.485C250.721 273.504 248.061 276.258 248.822 279.234C249.3 281.105 250.337 282.566 251.266 284.243C252.835 287.057 251.111 289.42 249.765 291.897C249.34 292.678 250.532 293.372 250.95 292.591C252.229 290.221 253.75 288.033 253.165 285.259C252.74 283.273 251.145 281.597 250.371 279.759C249.192 276.945 251.784 274.38 253.42 272.454C255.285 270.259 257.736 267.742 258.045 264.725C258.537 260.087 253.158 255.765 257.036 251.833Z" fill="white"/>
<path d="M283.11 281.583C280.525 277.907 287.473 270.569 289.176 267.64C292.846 261.325 287.379 254.048 281.643 251.261C280.848 250.877 280.148 252.062 280.949 252.445C284.558 254.196 287.48 257.461 288.793 261.251C290.415 265.917 285.507 270.286 283.413 274.003C282.262 276.042 280.276 279.16 281.562 281.576C283.252 284.754 286.928 286.276 288.025 289.83C288.288 290.672 289.614 290.315 289.351 289.467C288.274 285.993 285.117 284.438 283.11 281.583Z" fill="white"/>
<path d="M298.313 336.149C294.718 334.008 291.742 332.965 289.197 329.383C287.022 326.327 285.003 322.718 285.077 318.867C285.09 318.214 284.35 318.046 283.953 318.355C274.406 318.625 264.772 315.615 255.273 316.612C252.532 316.901 251.853 318.692 251.294 321.156C250.169 326.077 245.214 332.897 239.539 333.133C238.657 333.167 238.65 334.547 239.539 334.506C243.215 334.358 246.157 331.436 248.715 329.08C249.954 327.936 251.28 326.266 251.819 324.657C252.391 322.947 252.405 319.5 253.966 318.355C255.313 317.366 258.356 317.85 259.925 317.931C261.79 318.026 263.654 318.221 265.513 318.389C271.592 318.955 277.611 319.884 283.73 319.729C283.932 323.526 285.898 326.966 287.999 330.07C290.597 333.914 293.762 335.038 297.606 337.327C298.38 337.792 299.067 336.607 298.313 336.149Z" fill="#3A3A3A"/>
<path d="M261.452 231.899V250.13C261.452 250.13 265.081 253.214 269.12 253.214C272.561 253.214 276.122 250.13 276.122 250.13V231.926C273.786 232.229 271.362 232.39 268.885 232.39C266.333 232.39 263.849 232.222 261.452 231.899Z" fill="#FCCEB6"/>
<path d="M261.452 226.486V241.398C263.849 241.721 266.333 241.89 268.885 241.89C271.362 241.89 273.786 241.728 276.122 241.432V226.486H261.452Z" fill="#E7B39A"/>
<path d="M294.725 188.731C294.348 193.262 297.72 196.931 302.245 196.931C306.776 196.931 311.125 196.958 311.125 188.731C311.125 180.524 308.129 180.524 303.598 180.524C299.074 180.531 295.095 184.2 294.725 188.731Z" fill="#FCCEB6"/>
<path d="M307.395 187.809C307.395 188.347 306.782 188.792 306.022 188.792H301.908C301.154 188.792 300.535 188.354 300.535 187.809C300.535 187.27 301.147 186.826 301.908 186.826H306.022C306.782 186.826 307.395 187.263 307.395 187.809Z" fill="#E7B39A"/>
<path d="M242.824 188.731C243.194 193.262 239.828 196.931 235.297 196.931C230.766 196.931 226.417 196.958 226.417 188.731C226.417 180.524 229.413 180.524 233.937 180.524C238.475 180.531 242.454 184.2 242.824 188.731Z" fill="#FCCEB6"/>
<path d="M230.154 187.809C230.154 188.347 230.766 188.792 231.527 188.792H235.647C236.408 188.792 237.021 188.354 237.021 187.809C237.021 187.27 236.408 186.826 235.647 186.826H231.527C230.766 186.826 230.154 187.263 230.154 187.809Z" fill="#E7B39A"/>
<path d="M269.787 141.025C249.065 141.025 236.341 151.642 236.341 162.629V183.042L238.563 216.017C238.563 227.799 248.035 237.123 267.936 237.123C288.658 237.123 299.154 228.162 299.154 217.168L301.376 183.035V163.774C301.382 152.005 289.688 141.025 269.787 141.025Z" fill="#FCCEB6"/>
<path d="M269.929 133.875C242.461 133.875 233.399 149.097 233.399 161.114L234.503 183.594C234.503 183.594 234.51 184.516 235.405 184.516C236.375 184.516 236.341 183.594 236.341 183.594L236.893 163.181C236.893 160.387 237.169 157.613 238.738 155.042C250.748 141.025 289.729 141.025 298.811 155.035C300.501 157.937 300.837 161.107 300.837 164.339L301.389 183.594C301.389 183.594 301.389 184.496 302.298 184.496C303.16 184.496 303.227 183.594 303.227 183.594L304.331 162.373C304.325 149.501 297.229 133.875 269.929 133.875Z" fill="#B88C40"/>
<path d="M250.458 165.894C254.013 165.645 256.969 167.503 257.635 165.282C258.207 163.356 252.882 162.737 250.256 162.919C247.483 163.114 243.1 164.649 243.921 166.238C244.978 168.298 247.207 166.117 250.458 165.894Z" fill="#603A17"/>
<path d="M257.783 164.238C258.322 164.574 258.598 164.999 258.443 165.517C258.268 166.096 257.938 166.385 257.48 166.513C258.329 166.581 258.935 166.439 259.17 165.652C259.366 165.005 258.739 164.541 257.783 164.238Z" fill="#FABC4F"/>
<path d="M268.589 211.21C266.71 211.21 265.189 209.688 265.189 206.464L265.741 178.268C265.741 176.215 268.589 176.215 268.589 176.215C268.589 179.076 268.589 211.21 268.589 211.21Z" fill="#E7B39A"/>
<path d="M269.303 228.256C271.437 228.256 273.262 228.499 274.824 228.882C273.7 228.202 271.922 227.522 269.303 227.522C266.684 227.522 264.907 228.202 263.783 228.882C265.338 228.499 267.162 228.256 269.303 228.256Z" fill="#E7B39A"/>
<path d="M254.053 214.112V215.404C254.053 216.246 254.147 217.067 254.336 217.835C254.888 220.104 256.221 221.948 258.288 223.315C260.853 225.012 264.549 225.914 268.979 225.914C273.355 225.914 276.883 225.079 279.475 223.436C281.656 222.056 283.05 220.171 283.615 217.835C283.804 217.061 283.898 216.239 283.898 215.404V214.119H254.053V214.112Z" fill="#E7B39A"/>
<path d="M268.98 215.135H255.374C255.374 215.916 255.454 216.643 255.623 217.323C256.101 219.356 257.286 220.972 259.029 222.157C261.399 223.766 264.819 224.594 268.98 224.594C273.039 224.594 276.392 223.806 278.755 222.265C280.6 221.073 281.832 219.417 282.33 217.323C282.492 216.643 282.579 215.916 282.579 215.135H268.98Z" fill="#603A17"/>
<path d="M278.761 222.258C276.674 220.016 273.018 218.528 268.851 218.528C264.744 218.528 261.142 219.969 259.035 222.15C261.405 223.759 264.825 224.587 268.986 224.587C273.039 224.587 276.391 223.8 278.761 222.258Z" fill="#F15B2A"/>
<path d="M268.98 215.135H255.374C255.374 215.916 255.454 216.643 255.623 217.323H282.337C282.498 216.643 282.586 215.916 282.586 215.135H268.98Z" fill="white"/>
<path d="M284.315 165.787C280.754 165.793 277.947 167.867 277.119 165.692C276.405 163.814 281.676 162.804 284.302 162.797C287.082 162.784 291.566 163.996 290.866 165.652C289.957 167.786 287.581 165.773 284.315 165.787Z" fill="#603A17"/>
<path d="M276.89 164.663C276.378 165.033 276.129 165.477 276.324 165.982C276.533 166.541 276.89 166.81 277.354 166.911C276.513 167.039 275.9 166.945 275.604 166.171C275.368 165.545 275.967 165.04 276.89 164.663Z" fill="#FABC4F"/>
<path d="M287.015 180.531C287.015 181.662 286.059 182.577 284.874 182.577C283.689 182.577 282.733 181.655 282.733 180.531C282.733 179.399 283.689 178.484 284.874 178.484C286.059 178.484 287.015 179.399 287.015 180.531Z" fill="#754D29"/>
<path d="M285.642 179.655C285.642 180.012 285.339 180.302 284.962 180.302C284.592 180.302 284.289 180.012 284.289 179.655C284.289 179.292 284.592 179.002 284.962 179.002C285.339 179.002 285.642 179.292 285.642 179.655Z" fill="#FAF1EC"/>
<path d="M249.012 180.531C249.012 181.662 249.974 182.577 251.159 182.577C252.344 182.577 253.307 181.655 253.307 180.531C253.307 179.399 252.344 178.484 251.159 178.484C249.974 178.484 249.012 179.399 249.012 180.531Z" fill="#754D29"/>
<path d="M250.392 179.655C250.392 180.012 250.695 180.302 251.072 180.302C251.449 180.302 251.745 180.012 251.745 179.655C251.745 179.292 251.442 179.002 251.072 179.002C250.702 179.002 250.392 179.292 250.392 179.655Z" fill="#FAF1EC"/>
<path d="M250.512 140.237C250.459 139.005 249.718 137.908 248.069 137.685C244.904 137.255 242.979 136.07 241.982 132.953C241.121 130.26 237.283 129.485 235.809 132.145C232.773 137.632 231.756 145.758 236.502 150.591C237.856 151.972 239.909 151.797 241.276 150.591C244.036 148.168 246.796 145.751 249.55 143.334C250.634 142.391 250.829 141.254 250.512 140.237Z" fill="#B88C40"/>
<path d="M237.128 345.716L237.317 349.015L239.404 391.482C245.753 393.071 252.296 394.182 258.988 394.768L259.278 371.878H278.546V394.983C284.747 394.579 290.826 393.724 296.744 392.459L298.824 350.092L299.08 345.709C299.08 345.709 289.405 349.008 269.565 349.008C249.617 349.015 237.128 345.716 237.128 345.716Z" fill="#0C0C0C"/>
</g>
<defs>
<filter id="filter0_d_727_726" x="204.068" y="121.238" width="128.562" height="281.746" filterUnits="userSpaceOnUse" color-interpolation-filters="sRGB">
<feFlood flood-opacity="0" result="BackgroundImageFix"/>
<feColorMatrix in="SourceAlpha" type="matrix" values="0 0 0 0 0 0 0 0 0 0 0 0 0 0 0 0 0 0 127 0" result="hardAlpha"/>
<feOffset dy="4"/>
<feGaussianBlur stdDeviation="2"/>
<feComposite in2="hardAlpha" operator="out"/>
<feColorMatrix type="matrix" values="0 0 0 0 0 0 0 0 0 0 0 0 0 0 0 0 0 0 0.25 0"/>
<feBlend mode="normal" in2="BackgroundImageFix" result="effect1_dropShadow_727_726"/>
<feBlend mode="normal" in="SourceGraphic" in2="effect1_dropShadow_727_726" result="shape"/>
</filter>
<radialGradient id="paint0_radial_727_726" cx="0" cy="0" r="1" gradientUnits="userSpaceOnUse" gradientTransform="translate(270.5 270.5) rotate(86.5664) scale(200.731)">
<stop stop-color="#2A91CA"/>
<stop offset="1" stop-color="#2A91CA" stop-opacity="0"/>
</radialGradient>
</defs>
</svg>
