<svg width="64" height="65" viewBox="0 0 64 65" fill="none" xmlns="http://www.w3.org/2000/svg">
<path fill-rule="evenodd" clip-rule="evenodd" d="M32 64.844C49.6731 64.844 64 50.5171 64 32.844C64 15.1709 49.6731 0.843994 32 0.843994C14.3269 0.843994 0 15.1709 0 32.844C0 50.5171 14.3269 64.844 32 64.844ZM20.5492 11.4393C20.6853 10.288 21.0548 9.78236 22.2062 9.78236H28.873C30.0243 9.78236 30.6661 10.288 30.53 11.4393L25.0106 49.5149C24.8744 50.6663 24.5049 51.1719 23.3536 51.1719H16.6868C15.5354 51.1719 14.8936 50.6663 15.0298 49.5149L20.5492 11.4393ZM28.8611 47.8774C28.6977 49.0638 29.1373 49.5889 30.308 49.515L48.3404 46.9245C52.2728 46.3488 54.4743 45.1664 55.0928 40.6544L55.5401 37.3754C56.1585 32.8634 54.3537 31.1326 50.7208 29.5223L34.0421 22.1825C32.9335 21.7974 32.3734 22.1825 32.2101 23.3689L31.3894 29.3822C31.226 30.5686 31.6616 31.1364 32.7741 31.4748L45.3687 36.7686C45.9871 36.9942 46.0999 37.1926 46.026 37.741C45.9482 38.2856 45.7888 38.449 45.1314 38.4995L31.5761 40.2187C30.4131 40.246 29.8452 40.6777 29.6818 41.8641L28.8611 47.8774Z" fill="white"/>
</svg>
