<svg width="137" height="39" viewBox="0 0 137 39" fill="none" xmlns="http://www.w3.org/2000/svg">
<path d="M85.973 38.9187V34.9181C85.973 33.7856 85.3567 33.2064 84.3644 33.2064C83.3721 33.2064 82.7153 33.7995 82.7153 34.9181V38.9187H81.7493V29.551H82.7153V33.1569C83.1983 32.6174 83.8288 32.3675 84.5644 32.3675C86.0519 32.3675 86.937 33.3016 86.937 34.7614V38.9187H85.973Z" fill="#F2F5F8"/>
<path d="M95.1381 38.2622C94.6813 38.7104 94.0528 39 93.2485 39C92.4442 39 91.8136 38.7104 91.3589 38.2622C90.688 37.5918 90.5546 36.6834 90.5546 35.6837C90.5546 34.6841 90.688 33.7757 91.3589 33.1053C91.8156 32.657 92.4442 32.3674 93.2485 32.3674C94.0528 32.3674 94.6834 32.657 95.1381 33.1053C95.809 33.7757 95.9424 34.6841 95.9424 35.6837C95.9424 36.6834 95.809 37.5898 95.1381 38.2622ZM94.455 33.6824C94.1458 33.379 93.7174 33.2084 93.2485 33.2084C92.7796 33.2084 92.3633 33.379 92.0561 33.6824C91.5731 34.1565 91.5206 34.9578 91.5206 35.6817C91.5206 36.4057 91.5751 37.209 92.0561 37.681C92.3633 37.9845 92.7796 38.1551 93.2485 38.1551C93.7174 38.1551 94.1458 37.9845 94.455 37.681C94.938 37.207 94.9784 36.4057 94.9784 35.6817C94.9784 34.9598 94.938 34.1565 94.455 33.6824Z" fill="#F2F5F8"/>
<path d="M103.545 38.4327C103.196 38.7759 102.608 38.998 101.937 38.998C101.213 38.998 100.609 38.8274 100.073 38.1432V38.9187H99.1073V29.551H100.073V33.1945C100.609 32.5241 101.213 32.3655 101.937 32.3655C102.608 32.3655 103.198 32.5896 103.545 32.9307C104.216 33.5892 104.35 34.6682 104.35 35.6798C104.35 36.6953 104.216 37.7743 103.545 38.4327ZM101.735 33.2084C100.3 33.2084 100.071 34.4183 100.071 35.6817C100.071 36.9452 100.3 38.1551 101.735 38.1551C103.169 38.1551 103.384 36.9452 103.384 35.6817C103.384 34.4203 103.169 33.2084 101.735 33.2084Z" fill="#F2F5F8"/>
<path d="M112.209 38.4327C111.859 38.7759 111.271 38.998 110.6 38.998C109.877 38.998 109.273 38.8274 108.737 38.1432V38.9187H107.771V29.551H108.737V33.1945C109.273 32.5241 109.877 32.3655 110.6 32.3655C111.271 32.3655 111.861 32.5896 112.209 32.9307C112.88 33.5892 113.013 34.6682 113.013 35.6798C113.015 36.6953 112.88 37.7743 112.209 38.4327ZM110.4 33.2084C108.965 33.2084 108.737 34.4183 108.737 35.6817C108.737 36.9452 108.965 38.1551 110.4 38.1551C111.835 38.1551 112.049 36.9452 112.049 35.6817C112.049 34.4203 111.835 33.2084 110.4 33.2084Z" fill="#F2F5F8"/>
<path d="M117.16 30.6042V29.5391H118.246V30.6042H117.16ZM117.215 38.9187V32.4448H118.181V38.9187H117.215Z" fill="#F2F5F8"/>
<path d="M123.603 35.9336C123.603 37.3538 124.286 38.1709 125.547 38.1709C126.311 38.1709 126.754 37.9468 127.277 37.4331L127.934 37.9984C127.263 38.6569 126.647 38.998 125.521 38.998C123.779 38.998 122.639 37.9726 122.639 35.6817C122.639 33.5892 123.672 32.3654 125.347 32.3654C127.051 32.3654 128.055 33.5753 128.055 35.4973V35.9316H123.603V35.9336ZM126.887 34.1426C126.633 33.5496 126.042 33.1687 125.345 33.1687C124.648 33.1687 124.058 33.5496 123.803 34.1426C123.656 34.4976 123.629 34.696 123.601 35.2216H127.087C127.063 34.696 127.035 34.4976 126.887 34.1426Z" fill="#F2F5F8"/>
<path d="M134.318 38.998C133.205 38.998 132.334 38.7481 131.61 38.0638L132.253 37.4331C132.776 37.9726 133.486 38.1828 134.304 38.1828C135.389 38.1828 136.06 37.802 136.06 37.0384C136.06 36.4731 135.725 36.1558 134.961 36.0903L133.876 35.9991C132.588 35.894 131.905 35.3287 131.905 34.2616C131.905 33.0775 132.924 32.3674 134.332 32.3674C135.27 32.3674 136.115 32.5916 136.705 33.0656L136.074 33.6844C135.606 33.3294 135.001 33.1707 134.318 33.1707C133.352 33.1707 132.843 33.5793 132.843 34.2358C132.843 34.7892 133.164 35.1165 133.997 35.1839L135.056 35.2751C136.21 35.3802 137 35.8146 137 37.0245C137 38.2741 135.915 38.998 134.318 38.998Z" fill="#F2F5F8"/>
<path d="M17.6166 19.1777V19.4573C17.6166 19.6735 17.6651 19.8144 17.7601 19.8818C17.855 19.9512 17.9945 19.9849 18.1764 19.9849C18.3583 19.9849 18.5624 19.9473 18.7847 19.8719C19.007 19.7965 19.1808 19.7231 19.3061 19.6517L19.5041 19.5327V18.4875L18.0895 18.5946C17.7742 18.6263 17.6166 18.8187 17.6166 19.1777Z" fill="#F2F5F8"/>
<path d="M18.5604 12.7157C15.4481 12.7157 12.924 15.191 12.924 18.2455C12.924 21.2999 15.4461 23.7772 18.5604 23.7772C21.6726 23.7772 24.1968 21.3019 24.1968 18.2455C24.1948 15.193 21.6726 12.7157 18.5604 12.7157ZM21.0401 21.1274H19.8033L19.5042 20.5026C19.4759 20.5522 19.3809 20.6295 19.2253 20.7347C19.0676 20.8378 18.8494 20.9409 18.5725 21.0421C18.2936 21.1433 18.0268 21.1928 17.7722 21.1928C17.2306 21.1928 16.8143 21.0401 16.5212 20.7347C16.2282 20.4292 16.0827 20.0762 16.0827 19.6735V19.136C16.0827 18.6759 16.2221 18.299 16.499 18.0055C16.7779 17.7119 17.2043 17.5652 17.7823 17.5691C18.3603 17.5731 18.7908 17.5751 19.0777 17.5751C19.3627 17.5751 19.5062 17.5711 19.5062 17.5652V17.3014V17.1962C19.5062 16.9086 19.4435 16.7202 19.3202 16.631C19.1949 16.5417 18.9464 16.4961 18.5745 16.4961C18.2027 16.4961 17.4367 16.5358 16.2807 16.6151V15.6888C16.9456 15.431 17.8349 15.3021 18.9464 15.3021C19.6193 15.3021 20.1367 15.4409 20.4985 15.7166C20.8602 15.9923 21.0421 16.4683 21.0421 17.1427V21.1274H21.0401Z" fill="#F2F5F8"/>
<path d="M18.528 0H17.267L16.8729 2.2254C16.0625 2.30473 15.2683 2.44357 14.4983 2.63398L13.3544 0.676346L10.9838 1.52327L11.3901 3.7447C10.6625 4.08981 9.96529 4.4865 9.30444 4.93078L7.5442 3.47297L5.61217 5.06367L6.77017 7.01933C6.21037 7.5846 5.69099 8.18954 5.22011 8.83019L3.05769 8.0507L1.79662 10.1948L3.56091 11.6407C3.23149 12.3567 2.95665 13.1005 2.73636 13.8661L0.438545 13.8601L0 16.2978L2.16646 17.0654C2.13614 17.4541 2.12199 17.8488 2.12199 18.2475C2.12199 18.6442 2.13614 19.0389 2.16646 19.4296L0 20.1972L0.436525 22.6348L2.73636 22.6288C2.95665 23.3944 3.23352 24.1382 3.56091 24.8542L1.79662 26.3002L3.05769 28.4422L5.22011 27.6647C5.69099 28.3054 6.21037 28.9103 6.77017 29.4756L5.61217 31.4313L7.5442 33.024L9.30242 31.5661C9.96529 32.0084 10.6625 32.4051 11.388 32.7502L10.9818 34.9717L13.3524 35.8186L14.4963 33.8629C15.2683 34.0533 16.0605 34.1922 16.8709 34.2715L17.2649 36.4969H18.526C28.7945 36.4969 37.1187 28.3272 37.1187 18.2495C37.1187 8.16971 28.7965 0 18.528 0ZM18.528 32.0759V32.0798C10.7434 32.0798 4.43396 25.8856 4.43396 18.2475C4.43396 10.6073 10.7434 4.41311 18.528 4.41311V4.41708C26.2986 4.41708 32.6181 10.6212 32.6181 18.2455C32.6181 25.8717 26.2966 32.0759 18.528 32.0759Z" fill="#F2F5F8"/>
<path d="M43.222 9.6652C45.4066 8.8163 48.3228 8.39383 51.9706 8.39383C54.1795 8.39383 55.8771 8.84803 57.0655 9.75446C58.2538 10.6609 58.8479 12.2218 58.8479 14.4353V27.5081H54.8485L53.8057 25.4592C53.7107 25.6238 53.4035 25.8777 52.8882 26.2188C52.3728 26.56 51.6574 26.8972 50.746 27.2264C49.8325 27.5557 48.9574 27.7203 48.1187 27.7203C46.3423 27.7203 44.9741 27.2205 44.0142 26.2188C43.0542 25.2172 42.5732 24.0589 42.5732 22.7379V20.9707C42.5732 19.4633 43.028 18.2276 43.9414 17.2617C44.8529 16.2958 46.2574 15.8198 48.1531 15.8317C50.0487 15.8436 51.4654 15.8495 52.4011 15.8495C53.3368 15.8495 53.8057 15.8376 53.8057 15.8138V14.949V14.6138C53.8057 13.6717 53.6015 13.0529 53.1933 12.7593C52.7851 12.4658 51.9686 12.317 50.746 12.317C49.5213 12.317 47.0133 12.446 43.222 12.7058V9.6652ZM47.6135 22.0318C47.6135 22.7379 47.7691 23.204 48.0823 23.4282C48.3936 23.6523 48.8503 23.7634 49.4505 23.7634C50.0487 23.7634 50.7156 23.6404 51.4492 23.3925C52.1808 23.1445 52.7507 22.9045 53.159 22.6685L53.8077 22.2798V18.8524L49.1635 19.2055C48.1308 19.2987 47.6155 19.9354 47.6155 21.1135V22.0318H47.6135Z" fill="#F2F5F8"/>
<path d="M117.292 3.72487C117.292 5.27789 116.01 6.53538 114.428 6.53538C112.846 6.53538 111.564 5.27789 111.564 3.72487C111.564 2.17186 112.846 0.914368 114.428 0.914368C116.01 0.914368 117.292 2.17384 117.292 3.72487Z" fill="#F2F5F8"/>
<path d="M73.4978 15.0006C73.4978 13.3048 72.7905 12.4559 71.3738 12.4559C70.4138 12.4559 69.6216 12.5749 68.9971 12.8089C68.3727 13.045 67.6653 13.4575 66.8731 14.0446V27.5061H61.8329V8.74689H65.8647L66.8731 10.7601C66.9459 10.7125 67.1844 10.5478 67.5926 10.2662C68.0008 9.98256 68.3969 9.72471 68.7809 9.48869C69.1649 9.25266 69.7227 9.02456 70.4542 8.80044C71.1858 8.57631 71.972 8.46524 72.8127 8.46524C75.2843 8.46524 76.9415 9.27844 77.7802 10.9029C80.0356 9.27844 82.3293 8.46524 84.6554 8.46524C88.4467 8.46524 90.3444 10.6688 90.3444 15.072V27.5081H85.3042V15.0006C85.3042 13.7292 84.8959 12.9279 84.0795 12.5987C83.8147 12.5055 83.5156 12.4579 83.1801 12.4579C81.2602 12.4579 79.7001 12.9537 78.4996 13.9415L78.536 15.0363V27.5081H73.4958V15.0006H73.4978Z" fill="#F2F5F8"/>
<path d="M93.4041 9.6652C95.5887 8.8163 98.5029 8.39383 102.153 8.39383C104.362 8.39383 106.059 8.84803 107.248 9.75446C108.436 10.6609 109.03 12.2218 109.03 14.4353V27.5081H105.035L103.992 25.4592C103.897 25.6238 103.59 25.8777 103.074 26.2188C102.559 26.56 101.844 26.8972 100.932 27.2264C100.019 27.5557 99.1436 27.7203 98.3049 27.7203C96.5285 27.7203 95.1603 27.2205 94.2003 26.2188C93.2404 25.2172 92.7594 24.0589 92.7594 22.7379V20.9707C92.7594 19.4633 93.2141 18.2276 94.1276 17.2617C95.039 16.2958 96.4436 15.8198 98.3392 15.8317C100.235 15.8436 101.652 15.8495 102.587 15.8495C103.523 15.8495 103.992 15.8376 103.992 15.8138V14.949V14.6138C103.992 13.6717 103.788 13.0529 103.379 12.7593C102.971 12.4658 102.155 12.317 100.932 12.317C99.7074 12.317 97.1994 12.446 93.4081 12.7058V9.6652H93.4041ZM97.7976 22.0318C97.7976 22.7379 97.9532 23.204 98.2665 23.4282C98.5777 23.6523 99.0344 23.7634 99.6347 23.7634C100.233 23.7634 100.9 23.6404 101.633 23.3925C102.365 23.1445 102.935 22.9045 103.343 22.6685L103.992 22.2798V18.8524L99.3477 19.2055C98.315 19.2987 97.7996 19.9354 97.7996 21.1135V22.0318H97.7976Z" fill="#F2F5F8"/>
<path d="M116.948 8.74689H111.908V27.5081H116.948V8.74689Z" fill="#F2F5F8"/>
<path d="M131.277 8.42953C135.092 8.42953 137 10.6212 137 15.0006V27.5081H131.96V14.9292C131.96 13.2334 131.25 12.3845 129.836 12.3845C128.876 12.3845 128.059 12.5074 127.386 12.7554C126.715 13.0033 125.994 13.4218 125.226 14.0089V27.5061H120.186V8.74688H124.217L125.226 10.7601C126.978 9.51248 128.37 8.79448 129.403 8.60408C129.955 8.48705 130.579 8.42953 131.277 8.42953Z" fill="#F2F5F8"/>
<path d="M27.6122 16.6528C27.4142 15.5639 27.0079 14.5167 26.4097 13.5547L26.4057 13.5448L27.9113 11.248L23.6673 7.85038L21.6767 9.75843L21.6646 9.75644C20.5854 9.37364 19.4577 9.19514 18.33 9.2229L17.0588 6.79916L11.9398 8.70721L12.6269 11.3471C12.0833 11.7974 11.5942 12.3091 11.1698 12.8744C10.9151 13.2096 10.6868 13.5626 10.4827 13.9296L7.7079 13.7987L6.83081 19.1043L9.5025 19.8402C9.70056 20.933 10.1088 21.9862 10.711 22.9502L9.20744 25.247L13.4514 28.6446L15.44 26.7365C16.5233 27.1213 17.655 27.3018 18.7867 27.274L20.0579 29.6958L25.177 27.7877L24.4898 25.1478C24.8152 24.878 25.1204 24.5865 25.4053 24.2751C25.8843 23.7534 26.2966 23.1802 26.6361 22.5674L29.4088 22.6983L30.2859 17.3926L27.6122 16.6528ZM24.0331 22.6288C21.5676 25.596 17.1174 26.0383 14.0941 23.6186C11.0708 21.1988 10.6201 16.8313 13.0856 13.8641C15.5512 10.8969 20.0013 10.4546 23.0247 12.8744C26.048 15.2942 26.4987 19.6616 24.0331 22.6288Z" fill="#F2F5F8"/>
</svg>
