<svg width="24" height="24" viewBox="0 0 24 24" fill="none" xmlns="http://www.w3.org/2000/svg">
<path fill-rule="evenodd" clip-rule="evenodd" d="M12.0003 13.4146L6.70719 18.7077C6.65679 18.7547 6.60633 18.7988 6.54853 18.8367C6.43423 18.9117 6.30467 18.9628 6.16996 18.986C6.11011 18.9964 6.09471 18.9958 6.03421 19C6.01141 19 5.98866 19 5.96591 19C5.9054 18.9958 5.89 18.9964 5.83015 18.986C5.7179 18.9667 5.60919 18.928 5.50994 18.8722C5.43053 18.8276 5.35733 18.7721 5.29293 18.7077C5.09842 18.5132 4.99121 18.2413 5.00056 17.9664C5.00371 17.8754 5.01932 17.7848 5.04687 17.698C5.08132 17.5895 5.13442 17.487 5.20322 17.3963C5.23992 17.3479 5.25153 17.3377 5.29293 17.2934L10.586 12.0003L5.29293 6.70717C5.25153 6.66282 5.23992 6.65272 5.20322 6.60427C5.13442 6.51356 5.08132 6.41111 5.04687 6.30256C5.00551 6.17225 4.99126 6.03374 5.00526 5.89774C5.04062 5.55362 5.25813 5.24546 5.57054 5.0969C5.65279 5.0578 5.74035 5.03 5.83015 5.0145C5.94235 4.9952 6.05776 4.9952 6.16996 5.0145C6.32717 5.04165 6.47718 5.10675 6.60428 5.20321C6.65274 5.23991 6.66284 5.25151 6.70719 5.29291L12.0003 10.586L17.2934 5.29291C17.3377 5.25151 17.3479 5.23991 17.3963 5.20321C17.487 5.13441 17.5895 5.0813 17.698 5.04685C17.8283 5.0055 17.9669 4.99125 18.1028 5.00525C18.2161 5.01685 18.3272 5.048 18.43 5.0969C18.5123 5.13601 18.5891 5.18641 18.6578 5.24626C18.9185 5.47362 19.0448 5.82904 18.9861 6.16995C18.959 6.32716 18.8938 6.47716 18.7974 6.60427C18.7607 6.65272 18.7491 6.66282 18.7077 6.70717L13.4146 12.0003L18.7077 17.2934C18.7491 17.3377 18.7607 17.3479 18.7974 17.3963C18.8662 17.487 18.9193 17.5895 18.9538 17.698C18.9813 17.7848 18.9969 17.8754 19 17.9664C19.0094 18.2413 18.9022 18.5132 18.7077 18.7077C18.6433 18.7721 18.5701 18.8276 18.4907 18.8722C18.3914 18.928 18.2827 18.9667 18.1705 18.986C18.1106 18.9964 18.0952 18.9958 18.0347 19C18.0119 19 17.9892 19 17.9664 19C17.9059 18.9958 17.8905 18.9964 17.8307 18.986C17.696 18.9628 17.5664 18.9117 17.4521 18.8367C17.3942 18.7988 17.3438 18.7547 17.2934 18.7077L12.0003 13.4146Z" fill="#00283F"/>
</svg>
