<svg width="42" height="42" viewBox="0 0 42 42" fill="none" xmlns="http://www.w3.org/2000/svg">
<path d="M19.9332 22.0693V22.3912C19.9332 22.64 19.9881 22.802 20.0956 22.8796C20.2031 22.9595 20.3608 22.9983 20.5666 22.9983C20.7725 22.9983 21.0034 22.9549 21.2549 22.8682C21.5065 22.7815 21.7031 22.697 21.8449 22.6148L22.069 22.4779V21.275L20.4683 21.3983C20.1116 21.4348 19.9332 21.6562 19.9332 22.0693Z" fill="#F2F5F8"/>
<path d="M21.0012 14.633C17.4796 14.633 14.6235 17.4816 14.6235 20.9966C14.6235 24.5116 17.4773 27.3624 21.0012 27.3624C24.5227 27.3624 27.3788 24.5139 27.3788 20.9966C27.3765 17.4838 24.5227 14.633 21.0012 14.633ZM23.807 24.313H22.4075L22.0691 23.5941C22.037 23.6511 21.9296 23.7401 21.7535 23.8611C21.5751 23.9798 21.3282 24.0985 21.0149 24.2149C20.6993 24.3313 20.3975 24.3884 20.1094 24.3884C19.4965 24.3884 19.0255 24.2126 18.6939 23.8611C18.3623 23.5096 18.1977 23.1033 18.1977 22.64V22.0214C18.1977 21.4919 18.3554 21.0582 18.6687 20.7204C18.9843 20.3826 19.4668 20.2137 20.1208 20.2183C20.7748 20.2228 21.2619 20.2251 21.5866 20.2251C21.909 20.2251 22.0713 20.2205 22.0713 20.2137V19.9101V19.7892C22.0713 19.4582 22.0005 19.2414 21.861 19.1387C21.7192 19.0359 21.4379 18.9834 21.0172 18.9834C20.5964 18.9834 19.7298 19.0291 18.4218 19.1204V18.0545C19.1741 17.7577 20.1802 17.6094 21.4379 17.6094C22.1994 17.6094 22.7848 17.7692 23.1941 18.0864C23.6034 18.4037 23.8092 18.9515 23.8092 19.7275V24.313H23.807Z" fill="#F2F5F8"/>
<path d="M20.9646 0H19.5376L19.0917 2.56095C18.1748 2.65225 17.2761 2.81202 16.4049 3.03114L15.1106 0.778327L12.4283 1.75295L12.8879 4.30933C12.0647 4.70648 11.2758 5.16298 10.528 5.67426L8.53629 3.99663L6.35019 5.82718L7.66048 8.07771C7.02706 8.72822 6.43937 9.42438 5.90657 10.1616L3.45979 9.26461L2.03289 11.732L4.02918 13.3959C3.65645 14.2199 3.34546 15.0758 3.09621 15.9569L0.496216 15.95L0 18.7552L2.45135 19.6385C2.41705 20.0859 2.40105 20.5401 2.40105 20.9989C2.40105 21.4554 2.41705 21.9096 2.45135 22.3592L0 23.2425L0.493929 26.0477L3.09621 26.0409C3.34546 26.9219 3.65874 27.7778 4.02918 28.6018L2.03289 30.2657L3.45979 32.7308L5.90657 31.8361C6.43937 32.5733 7.02706 33.2695 7.66048 33.92L6.35019 36.1705L8.53629 38.0034L10.5257 36.3257C11.2758 36.8347 12.0647 37.2912 12.8856 37.6884L12.426 40.2448L15.1083 41.2194L16.4026 38.9689C17.2761 39.188 18.1725 39.3478 19.0895 39.4391L19.5354 42H20.9623C32.581 42 42 32.5984 42 21.0011C42 9.40156 32.5833 0 20.9646 0ZM20.9646 36.9123V36.9169C12.1561 36.9169 5.01704 29.7887 5.01704 20.9989C5.01704 12.2067 12.1561 5.07853 20.9646 5.07853V5.08309C29.757 5.08309 36.9075 12.2227 36.9075 20.9966C36.9075 29.7727 29.7547 36.9123 20.9646 36.9123Z" fill="#F2F5F8"/>
<path d="M31.2433 19.1638C31.0192 17.9107 30.5596 16.7055 29.8827 15.5985L29.8781 15.5871L31.5817 12.944L26.7796 9.03409L24.5272 11.2298L24.5135 11.2276C23.2924 10.787 22.0164 10.5816 20.7404 10.6136L19.3021 7.82437L13.5099 10.0201L14.2873 13.0581C13.6722 13.5762 13.1188 14.1651 12.6386 14.8156C12.3505 15.2014 12.0921 15.6076 11.8611 16.0299L8.7215 15.8793L7.72906 21.9849L10.7521 22.8317C10.9762 24.0894 11.4381 25.3014 12.1195 26.4106L10.4182 29.0538L15.2203 32.9637L17.4704 30.7679C18.6961 31.2107 19.9767 31.4184 21.2572 31.3865L22.6956 34.1734L28.4878 31.9776L27.7103 28.9396C28.0785 28.6292 28.4238 28.2937 28.7462 27.9353C29.2882 27.3351 29.7547 26.6754 30.1388 25.9701L33.2762 26.1208L34.2686 20.0151L31.2433 19.1638ZM27.1935 26.0409C24.4038 29.4555 19.3684 29.9645 15.9475 27.1798C12.5266 24.3952 12.0166 19.3692 14.8064 15.9546C17.5962 12.54 22.6316 12.031 26.0525 14.8156C29.4734 17.6003 29.9833 22.6263 27.1935 26.0409Z" fill="#F2F5F8"/>
</svg>
