<svg width="16" height="16" viewBox="0 0 16 16" fill="none" xmlns="http://www.w3.org/2000/svg">
<path fill-rule="evenodd" clip-rule="evenodd" d="M5.66666 0.666656C6.03485 0.666656 6.33332 0.965133 6.33332 1.33332V1.99999H9.66666V1.33332C9.66666 0.965133 9.96513 0.666656 10.3333 0.666656C10.7015 0.666656 11 0.965133 11 1.33332V1.99999H14C14.7364 1.99999 15.3333 2.59694 15.3333 3.33332V14C15.3333 14.7364 14.7364 15.3333 14 15.3333H1.99999C1.26361 15.3333 0.666656 14.7364 0.666656 14V3.33332C0.666656 2.59694 1.26361 1.99999 1.99999 1.99999H4.99999V1.33332C4.99999 0.965133 5.29847 0.666656 5.66666 0.666656ZM4.99999 3.33332H1.99999V5.99999H14V3.33332H11V3.99999C11 4.36818 10.7015 4.66666 10.3333 4.66666C9.96513 4.66666 9.66666 4.36818 9.66666 3.99999V3.33332H6.33332V3.99999C6.33332 4.36818 6.03485 4.66666 5.66666 4.66666C5.29847 4.66666 4.99999 4.36818 4.99999 3.99999V3.33332ZM14 7.33332H11V9.99999H14V7.33332ZM14 11.3333H11V14H14V11.3333ZM9.66666 14V11.3333H6.33332V14H9.66666ZM4.99999 14V11.3333H1.99999V14H4.99999ZM1.99999 9.99999H4.99999V7.33332H1.99999V9.99999ZM6.33332 7.33332V9.99999H9.66666V7.33332H6.33332Z" fill="white"/>
</svg>
